<?xml version="1.0" standalone="no"?>
<!DOCTYPE svg PUBLIC "-//W3C//DTD SVG 20010904//EN"
 "http://www.w3.org/TR/2001/REC-SVG-20010904/DTD/svg10.dtd">
<svg version="1.0" xmlns="http://www.w3.org/2000/svg"
 width="200.000000pt" height="106.000000pt" viewBox="0 0 200.000000 106.000000"
 preserveAspectRatio="xMidYMid meet">

<g transform="translate(0.000000,106.000000) scale(0.100000,-0.100000)"
fill="#000000" stroke="none">
<path d="M1106 1033 c5 -19 -1 -20 -143 -26 -175 -7 -274 -20 -398 -52 -179
-47 -330 -124 -423 -215 -49 -49 -61 -50 -53 -6 4 21 -28 -17 -55 -66 -26 -47
-29 -63 -29 -138 0 -108 24 -160 114 -250 177 -175 504 -279 878 -280 635 -1
1106 303 983 635 -32 83 -153 203 -265 262 -150 78 -343 131 -537 149 -73 6
-77 6 -72 -13z m-92 -138 c0 -11 -4 -41 -8 -67 l-7 -48 58 0 c132 -1 192 -40
194 -128 1 -43 2 -39 18 38 l16 85 160 0 c179 0 208 -8 252 -75 34 -50 32
-140 -5 -211 -50 -96 -134 -139 -272 -139 l-59 0 -11 -58 c-6 -31 -13 -63 -15
-69 -5 -15 -141 -18 -149 -4 -4 5 1 44 9 88 15 80 18 118 6 73 -6 -23 -12 -25
-75 -28 -38 -2 -72 1 -77 5 -4 4 3 64 17 133 33 171 35 160 -35 160 l-60 0
-10 -52 c-6 -29 -19 -96 -29 -148 l-17 -95 -69 -3 c-38 -2 -73 1 -78 6 -5 5
-5 27 1 52 l9 42 -31 -30 c-53 -50 -94 -65 -193 -70 l-92 -5 -13 -66 -14 -66
-69 -3 c-42 -2 -72 1 -76 8 -5 9 40 261 91 508 l10 52 137 0 c75 0 154 -5 175
-11 43 -12 107 -64 107 -87 0 -34 11 -1 30 94 11 54 22 109 25 122 5 22 10 23
78 20 65 -3 72 -5 71 -23z"/>
<path d="M845 698 c-21 -112 -44 -231 -51 -265 l-12 -63 57 0 57 0 29 150 29
151 76 -3 c74 -3 75 -3 78 -31 2 -15 -6 -73 -17 -128 -30 -145 -31 -139 33
-139 l54 0 10 48 c51 248 51 277 0 315 -20 15 -48 21 -122 25 -83 4 -96 7 -92
21 2 9 7 32 11 51 4 19 9 43 11 53 5 15 -2 17 -53 17 l-59 0 -39 -202z"/>
<path d="M405 748 c-7 -24 -95 -485 -95 -502 0 -13 11 -16 54 -16 l54 0 11 50
c6 28 11 60 11 70 0 18 7 20 70 20 107 0 162 16 214 61 59 52 83 117 78 211
-3 38 -54 92 -100 106 -55 17 -291 16 -297 0z m254 -87 c52 -28 20 -167 -45
-191 -14 -6 -54 -10 -88 -10 l-63 0 19 98 c27 137 18 126 93 119 36 -4 73 -11
84 -16z"/>
<path d="M507 578 c-10 -45 -17 -86 -17 -90 0 -5 24 -8 54 -8 78 0 107 27 114
102 5 63 5 62 -80 73 l-55 7 -16 -84z"/>
<path d="M1300 751 c0 -10 -84 -449 -95 -499 -5 -22 -4 -23 52 -20 l58 3 14
66 13 66 99 5 c87 4 104 8 146 34 67 41 106 108 111 188 2 48 -1 68 -17 93
-36 57 -69 67 -233 71 -103 3 -148 0 -148 -7z m262 -98 c38 -34 9 -151 -43
-178 -16 -9 -56 -15 -95 -15 -64 0 -66 1 -61 23 3 12 13 62 23 111 l17 89 71
-7 c43 -4 77 -13 88 -23z"/>
<path d="M1417 644 c-8 -25 -27 -134 -27 -151 0 -18 83 -17 119 2 43 22 69
118 39 143 -7 5 -38 13 -70 17 -49 6 -57 5 -61 -11z"/>
<path d="M1242 580 c0 -14 2 -19 5 -12 2 6 2 18 0 25 -3 6 -5 1 -5 -13z"/>
<path d="M1232 530 c0 -14 2 -19 5 -12 2 6 2 18 0 25 -3 6 -5 1 -5 -13z"/>
<path d="M1222 480 c0 -14 2 -19 5 -12 2 6 2 18 0 25 -3 6 -5 1 -5 -13z"/>
<path d="M1212 430 c0 -14 2 -19 5 -12 2 6 2 18 0 25 -3 6 -5 1 -5 -13z"/>
</g>
</svg>
