<?xml version="1.0" standalone="no"?>
<!DOCTYPE svg PUBLIC "-//W3C//DTD SVG 20010904//EN"
 "http://www.w3.org/TR/2001/REC-SVG-20010904/DTD/svg10.dtd">
<svg version="1.0" xmlns="http://www.w3.org/2000/svg"
 width="225.000000pt" height="225.000000pt" viewBox="0 0 225.000000 225.000000"
 preserveAspectRatio="xMidYMid meet">

<g transform="translate(0.000000,225.000000) scale(0.100000,-0.100000)"
fill="#000000" stroke="none">
<path d="M1541 2131 l-453 -117 -71 -117 -70 -117 -136 0 -136 0 -335 -325
c-184 -179 -334 -328 -334 -331 1 -4 152 -152 335 -330 l334 -323 137 -1 136
0 65 -117 66 -117 458 -117 c252 -65 458 -117 459 -116 1 1 56 201 123 445
l121 443 -65 116 c-36 63 -65 116 -65 118 0 2 31 56 69 119 l70 115 -122 446
c-67 245 -124 445 -127 444 -3 0 -209 -53 -459 -118z m-63 -546 l-201 -335
-406 0 -406 0 50 48 c28 27 141 138 253 247 l203 199 342 87 c188 48 347 88
354 88 7 1 -78 -150 -189 -334z m486 -119 c53 -181 96 -334 96 -340 0 -15
-193 -677 -196 -673 -6 5 -395 661 -397 668 -2 7 395 680 399 676 1 -1 45
-150 98 -331z m-489 -787 c109 -181 196 -332 193 -334 -2 -2 -160 35 -351 83
l-347 88 -248 247 -248 247 402 0 402 0 197 -331z"/>
</g>
</svg>
